<?xml version="1.0" encoding="utf-8" standalone="no"?>
<!DOCTYPE svg PUBLIC "-//W3C//DTD SVG 1.1//EN"
  "http://www.w3.org/Graphics/SVG/1.1/DTD/svg11.dtd">
<svg xmlns:xlink="http://www.w3.org/1999/xlink" width="416.16pt" height="150.228pt" viewBox="0 0 416.16 150.228" xmlns="http://www.w3.org/2000/svg" version="1.1">
 <metadata>
  <rdf:RDF xmlns:dc="http://purl.org/dc/elements/1.1/" xmlns:cc="http://creativecommons.org/ns#" xmlns:rdf="http://www.w3.org/1999/02/22-rdf-syntax-ns#">
   <cc:Work>
    <dc:type rdf:resource="http://purl.org/dc/dcmitype/StillImage"/>
    <dc:date>2026-07-15T15:43:54.688413</dc:date>
    <dc:format>image/svg+xml</dc:format>
    <dc:creator>
     <cc:Agent>
      <dc:title>Matplotlib v3.11.0, https://matplotlib.org/</dc:title>
     </cc:Agent>
    </dc:creator>
   </cc:Work>
  </rdf:RDF>
 </metadata>
 <defs>
  <style type="text/css">*{stroke-linejoin: round; stroke-linecap: butt}</style>
 </defs>
 <g id="figure_1">
  <g id="patch_1">
   <path d="M 0 150.228
L 416.16 150.228
L 416.16 0
L 0 0
z
" style="fill: #ffffff"/>
  </g>
  <g id="axes_1">
   <g id="patch_2">
    <path d="M 15.9048 110.08971
L 67.1292 110.08971
Q 68.4684 110.08971 68.4684 108.73143
L 68.4684 49.98582
Q 68.4684 48.62754 67.1292 48.62754
L 15.9048 48.62754
Q 14.5656 48.62754 14.5656 49.98582
L 14.5656 108.73143
Q 14.5656 110.08971 15.9048 110.08971
z
" clip-path="url(#pfca2dfce83)" style="fill: #e8f0fa; stroke: #0f4d92; stroke-width: 0.8; stroke-linejoin: miter"/>
   </g>
   <g id="patch_3">
    <path d="M 69.798527 79.18884
Q 73.658788 79.18884 76.736426 79.18884
" clip-path="url(#pfca2dfce83)" style="fill: none; stroke: #767676; stroke-width: 0.7; stroke-linecap: round"/>
    <path d="M 73.536426 77.58884
L 76.736426 79.18884
L 73.536426 80.78884
z
" clip-path="url(#pfca2dfce83)" style="fill: #767676; stroke: #767676; stroke-width: 0.7; stroke-linecap: round"/>
   </g>
   <g id="patch_4">
    <path d="M 81.1908 110.08971
L 132.4152 110.08971
Q 133.7544 110.08971 133.7544 108.73143
L 133.7544 49.98582
Q 133.7544 48.62754 132.4152 48.62754
L 81.1908 48.62754
Q 79.8516 48.62754 79.8516 49.98582
L 79.8516 108.73143
Q 79.8516 110.08971 81.1908 110.08971
z
" clip-path="url(#pfca2dfce83)" style="fill: #e8f0fa; stroke: #0f4d92; stroke-width: 0.8; stroke-linejoin: miter"/>
   </g>
   <g id="patch_5">
    <path d="M 135.084527 79.18884
Q 138.944788 79.18884 142.022426 79.18884
" clip-path="url(#pfca2dfce83)" style="fill: none; stroke: #767676; stroke-width: 0.7; stroke-linecap: round"/>
    <path d="M 138.822426 77.58884
L 142.022426 79.18884
L 138.822426 80.78884
z
" clip-path="url(#pfca2dfce83)" style="fill: #767676; stroke: #767676; stroke-width: 0.7; stroke-linecap: round"/>
   </g>
   <g id="patch_6">
    <path d="M 146.4768 110.08971
L 197.7012 110.08971
Q 199.0404 110.08971 199.0404 108.73143
L 199.0404 49.98582
Q 199.0404 48.62754 197.7012 48.62754
L 146.4768 48.62754
Q 145.1376 48.62754 145.1376 49.98582
L 145.1376 108.73143
Q 145.1376 110.08971 146.4768 110.08971
z
" clip-path="url(#pfca2dfce83)" style="fill: #f5f5f5; stroke: #767676; stroke-width: 0.8; stroke-linejoin: miter"/>
   </g>
   <g id="patch_7">
    <path d="M 200.370527 79.18884
Q 204.230788 79.18884 207.308426 79.18884
" clip-path="url(#pfca2dfce83)" style="fill: none; stroke: #767676; stroke-width: 0.7; stroke-linecap: round"/>
    <path d="M 204.108426 77.58884
L 207.308426 79.18884
L 204.108426 80.78884
z
" clip-path="url(#pfca2dfce83)" style="fill: #767676; stroke: #767676; stroke-width: 0.7; stroke-linecap: round"/>
   </g>
   <g id="patch_8">
    <path d="M 211.7628 110.08971
L 262.9872 110.08971
Q 264.3264 110.08971 264.3264 108.73143
L 264.3264 49.98582
Q 264.3264 48.62754 262.9872 48.62754
L 211.7628 48.62754
Q 210.4236 48.62754 210.4236 49.98582
L 210.4236 108.73143
Q 210.4236 110.08971 211.7628 110.08971
z
" clip-path="url(#pfca2dfce83)" style="fill: #f5f5f5; stroke: #767676; stroke-width: 0.8; stroke-linejoin: miter"/>
   </g>
   <g id="patch_9">
    <path d="M 265.656527 79.18884
Q 269.516788 79.18884 272.594426 79.18884
" clip-path="url(#pfca2dfce83)" style="fill: none; stroke: #767676; stroke-width: 0.7; stroke-linecap: round"/>
    <path d="M 269.394426 77.58884
L 272.594426 79.18884
L 269.394426 80.78884
z
" clip-path="url(#pfca2dfce83)" style="fill: #767676; stroke: #767676; stroke-width: 0.7; stroke-linecap: round"/>
   </g>
   <g id="patch_10">
    <path d="M 277.0488 110.08971
L 328.2732 110.08971
Q 329.6124 110.08971 329.6124 108.73143
L 329.6124 49.98582
Q 329.6124 48.62754 328.2732 48.62754
L 277.0488 48.62754
Q 275.7096 48.62754 275.7096 49.98582
L 275.7096 108.73143
Q 275.7096 110.08971 277.0488 110.08971
z
" clip-path="url(#pfca2dfce83)" style="fill: #f5f5f5; stroke: #767676; stroke-width: 0.8; stroke-linejoin: miter"/>
   </g>
   <g id="patch_11">
    <path d="M 330.942527 79.18884
Q 334.802788 79.18884 337.880426 79.18884
" clip-path="url(#pfca2dfce83)" style="fill: none; stroke: #767676; stroke-width: 0.7; stroke-linecap: round"/>
    <path d="M 334.680426 77.58884
L 337.880426 79.18884
L 334.680426 80.78884
z
" clip-path="url(#pfca2dfce83)" style="fill: #767676; stroke: #767676; stroke-width: 0.7; stroke-linecap: round"/>
   </g>
   <g id="patch_12">
    <path d="M 342.3348 110.08971
L 393.5592 110.08971
Q 394.8984 110.08971 394.8984 108.73143
L 394.8984 49.98582
Q 394.8984 48.62754 393.5592 48.62754
L 342.3348 48.62754
Q 340.9956 48.62754 340.9956 49.98582
L 340.9956 108.73143
Q 340.9956 110.08971 342.3348 110.08971
z
" clip-path="url(#pfca2dfce83)" style="fill: #f5f5f5; stroke: #767676; stroke-width: 0.8; stroke-linejoin: miter"/>
   </g>
   <g id="text_1">
    <text style="font-weight: 700; font-size: 7.6px; font-family: 'Arial', 'Helvetica', 'DejaVu Sans', sans-serif; text-anchor: start; fill: #0f4d92" x="19.5876" y="60.951948" transform="rotate(-0 19.5876 60.951948)">v1</text>
   </g>
   <g id="text_2">
    <text style="font-size: 5.3px; font-family: 'Arial', 'Helvetica', 'DejaVu Sans', sans-serif; text-anchor: start; fill: #767676" x="19.5876" y="69.804155" transform="rotate(-0 19.5876 69.804155)">Formal held-out</text>
   </g>
   <g id="text_3">
    <text style="font-size: 5.8px; font-family: 'Arial', 'Helvetica', 'DejaVu Sans', sans-serif; fill: #3a3a3a" transform="translate(19.5876 92.335365)">57/96 fail</text>
    <text style="font-size: 5.8px; font-family: 'Arial', 'Helvetica', 'DejaVu Sans', sans-serif; fill: #3a3a3a" transform="translate(19.5876 98.647963)">kinematic</text>
    <text style="font-size: 5.8px; font-family: 'Arial', 'Helvetica', 'DejaVu Sans', sans-serif; fill: #3a3a3a" transform="translate(19.5876 104.960561)">mismatch</text>
   </g>
   <g id="text_4">
    <text style="font-weight: 700; font-size: 5.4px; font-family: 'Arial', 'Helvetica', 'DejaVu Sans', sans-serif; text-anchor: middle; fill: #0f4d92" x="41.6844" y="118.57896" transform="rotate(-0 41.6844 118.57896)">FORMAL</text>
   </g>
   <g id="text_5">
    <text style="font-weight: 700; font-size: 7.6px; font-family: 'Arial', 'Helvetica', 'DejaVu Sans', sans-serif; text-anchor: start; fill: #0f4d92" x="84.8736" y="60.951948" transform="rotate(-0 84.8736 60.951948)">v2</text>
   </g>
   <g id="text_6">
    <text style="font-size: 5.3px; font-family: 'Arial', 'Helvetica', 'DejaVu Sans', sans-serif; text-anchor: start; fill: #767676" x="84.8736" y="69.804155" transform="rotate(-0 84.8736 69.804155)">Formal held-out</text>
   </g>
   <g id="text_7">
    <text style="font-size: 5.8px; font-family: 'Arial', 'Helvetica', 'DejaVu Sans', sans-serif; fill: #3a3a3a" transform="translate(84.8736 92.335365)">60/96 fail</text>
    <text style="font-size: 5.8px; font-family: 'Arial', 'Helvetica', 'DejaVu Sans', sans-serif; fill: #3a3a3a" transform="translate(84.8736 98.647963)">frequency fix</text>
    <text style="font-size: 5.8px; font-family: 'Arial', 'Helvetica', 'DejaVu Sans', sans-serif; fill: #3a3a3a" transform="translate(84.8736 104.960674)">insufficient</text>
   </g>
   <g id="text_8">
    <text style="font-weight: 700; font-size: 5.4px; font-family: 'Arial', 'Helvetica', 'DejaVu Sans', sans-serif; text-anchor: middle; fill: #0f4d92" x="106.9704" y="118.57896" transform="rotate(-0 106.9704 118.57896)">FORMAL</text>
   </g>
   <g id="text_9">
    <text style="font-weight: 700; font-size: 7.6px; font-family: 'Arial', 'Helvetica', 'DejaVu Sans', sans-serif; text-anchor: start; fill: #767676" x="150.1596" y="60.951948" transform="rotate(-0 150.1596 60.951948)">v3</text>
   </g>
   <g id="text_10">
    <text style="font-size: 5.3px; font-family: 'Arial', 'Helvetica', 'DejaVu Sans', sans-serif; fill: #767676" transform="translate(150.1596 70.201396)">Train-only</text>
    <text style="font-size: 5.3px; font-family: 'Arial', 'Helvetica', 'DejaVu Sans', sans-serif; fill: #767676" transform="translate(150.1596 75.969908)">development</text>
   </g>
   <g id="text_11">
    <text style="font-size: 5.8px; font-family: 'Arial', 'Helvetica', 'DejaVu Sans', sans-serif; fill: #3a3a3a" transform="translate(150.1596 92.335365)">morphology map</text>
    <text style="font-size: 5.8px; font-family: 'Arial', 'Helvetica', 'DejaVu Sans', sans-serif; fill: #3a3a3a" transform="translate(150.1596 98.648076)">no balanced pool</text>
   </g>
   <g id="text_12">
    <text style="font-weight: 700; font-size: 5.4px; font-family: 'Arial', 'Helvetica', 'DejaVu Sans', sans-serif; text-anchor: middle; fill: #767676" x="172.2564" y="118.57896" transform="rotate(-0 172.2564 118.57896)">NO HELD-OUT TEST</text>
   </g>
   <g id="text_13">
    <text style="font-weight: 700; font-size: 7.6px; font-family: 'Arial', 'Helvetica', 'DejaVu Sans', sans-serif; text-anchor: start; fill: #767676" x="215.4456" y="60.951948" transform="rotate(-0 215.4456 60.951948)">v4</text>
   </g>
   <g id="text_14">
    <text style="font-size: 5.3px; font-family: 'Arial', 'Helvetica', 'DejaVu Sans', sans-serif; fill: #767676" transform="translate(215.4456 70.201396)">Train-only</text>
    <text style="font-size: 5.3px; font-family: 'Arial', 'Helvetica', 'DejaVu Sans', sans-serif; fill: #767676" transform="translate(215.4456 75.969908)">admission</text>
   </g>
   <g id="text_15">
    <text style="font-size: 5.8px; font-family: 'Arial', 'Helvetica', 'DejaVu Sans', sans-serif; fill: #3a3a3a" transform="translate(215.4456 92.335365)">S1/S2 candidate</text>
    <text style="font-size: 5.8px; font-family: 'Arial', 'Helvetica', 'DejaVu Sans', sans-serif; fill: #3a3a3a" transform="translate(215.4456 98.647963)">pools fail</text>
   </g>
   <g id="text_16">
    <text style="font-weight: 700; font-size: 5.4px; font-family: 'Arial', 'Helvetica', 'DejaVu Sans', sans-serif; text-anchor: middle; fill: #767676" x="237.5424" y="118.57896" transform="rotate(-0 237.5424 118.57896)">NO HELD-OUT TEST</text>
   </g>
   <g id="text_17">
    <text style="font-weight: 700; font-size: 7.6px; font-family: 'Arial', 'Helvetica', 'DejaVu Sans', sans-serif; text-anchor: start; fill: #767676" x="280.7316" y="60.951948" transform="rotate(-0 280.7316 60.951948)">v5</text>
   </g>
   <g id="text_18">
    <text style="font-size: 5.3px; font-family: 'Arial', 'Helvetica', 'DejaVu Sans', sans-serif; fill: #767676" transform="translate(280.7316 70.201396)">Train-only</text>
    <text style="font-size: 5.3px; font-family: 'Arial', 'Helvetica', 'DejaVu Sans', sans-serif; fill: #767676" transform="translate(280.7316 75.969908)">sanity</text>
   </g>
   <g id="text_19">
    <text style="font-size: 5.8px; font-family: 'Arial', 'Helvetica', 'DejaVu Sans', sans-serif; fill: #3a3a3a" transform="translate(280.7316 92.335365)">wrong-label/noise</text>
    <text style="font-size: 5.8px; font-family: 'Arial', 'Helvetica', 'DejaVu Sans', sans-serif; fill: #3a3a3a" transform="translate(280.7316 98.648076)">controls admitted</text>
   </g>
   <g id="text_20">
    <text style="font-weight: 700; font-size: 5.4px; font-family: 'Arial', 'Helvetica', 'DejaVu Sans', sans-serif; text-anchor: middle; fill: #767676" x="302.8284" y="118.57896" transform="rotate(-0 302.8284 118.57896)">NO HELD-OUT TEST</text>
   </g>
   <g id="text_21">
    <text style="font-weight: 700; font-size: 7.6px; font-family: 'Arial', 'Helvetica', 'DejaVu Sans', sans-serif; text-anchor: start; fill: #767676" x="346.0176" y="60.951948" transform="rotate(-0 346.0176 60.951948)">v6</text>
   </g>
   <g id="text_22">
    <text style="font-size: 5.3px; font-family: 'Arial', 'Helvetica', 'DejaVu Sans', sans-serif; fill: #767676" transform="translate(346.0176 70.201396)">Source-only</text>
    <text style="font-size: 5.3px; font-family: 'Arial', 'Helvetica', 'DejaVu Sans', sans-serif; fill: #767676" transform="translate(346.0176 75.969908)">evidence</text>
   </g>
   <g id="text_23">
    <text style="font-size: 5.8px; font-family: 'Arial', 'Helvetica', 'DejaVu Sans', sans-serif; fill: #3a3a3a" transform="translate(346.0176 92.335365)">CSCoh fails</text>
    <text style="font-size: 5.8px; font-family: 'Arial', 'Helvetica', 'DejaVu Sans', sans-serif; fill: #3a3a3a" transform="translate(346.0176 98.647963)">4/4 targets stop</text>
   </g>
   <g id="text_24">
    <text style="font-weight: 700; font-size: 5.4px; font-family: 'Arial', 'Helvetica', 'DejaVu Sans', sans-serif; text-anchor: middle; fill: #767676" x="368.1144" y="118.57896" transform="rotate(-0 368.1144 118.57896)">NO HELD-OUT TEST</text>
   </g>
   <g id="text_25">
    <text style="font-weight: 700; font-size: 8.5px; font-family: 'Arial', 'Helvetica', 'DejaVu Sans', sans-serif; text-anchor: start" x="15.57" y="28.668882" transform="rotate(-0 15.57 28.668882)">PU leave-one-condition-out: the complete predeclared failure chain</text>
   </g>
   <g id="text_26">
    <text style="font-size: 6.2px; font-family: 'Arial', 'Helvetica', 'DejaVu Sans', sans-serif; text-anchor: start; fill: #b64342" x="15.57" y="136.91574" transform="rotate(-0 15.57 136.91574)">v3--v6 are development/admission stops, not hidden formal downstream tests.</text>
   </g>
  </g>
 </g>
 <defs>
  <clipPath id="pfca2dfce83">
   <rect x="7.2" y="7.2" width="401.76" height="135.828"/>
  </clipPath>
 </defs>
</svg>
