<?xml version="1.0" encoding="utf-8" standalone="no"?>
<!DOCTYPE svg PUBLIC "-//W3C//DTD SVG 1.1//EN"
  "http://www.w3.org/Graphics/SVG/1.1/DTD/svg11.dtd">
<svg xmlns:xlink="http://www.w3.org/1999/xlink" width="416.16pt" height="248.239611pt" viewBox="0 0 416.16 248.239611" xmlns="http://www.w3.org/2000/svg" version="1.1">
 <metadata>
  <rdf:RDF xmlns:dc="http://purl.org/dc/elements/1.1/" xmlns:cc="http://creativecommons.org/ns#" xmlns:rdf="http://www.w3.org/1999/02/22-rdf-syntax-ns#">
   <cc:Work>
    <dc:type rdf:resource="http://purl.org/dc/dcmitype/StillImage"/>
    <dc:date>2026-07-15T15:43:47.820289</dc:date>
    <dc:format>image/svg+xml</dc:format>
    <dc:creator>
     <cc:Agent>
      <dc:title>Matplotlib v3.11.0, https://matplotlib.org/</dc:title>
     </cc:Agent>
    </dc:creator>
   </cc:Work>
  </rdf:RDF>
 </metadata>
 <defs>
  <style type="text/css">*{stroke-linejoin: round; stroke-linecap: butt}</style>
 </defs>
 <g id="figure_1">
  <g id="patch_1">
   <path d="M 0 248.239611
L 416.16 248.239611
L 416.16 0
L 0 0
z
" style="fill: #ffffff"/>
  </g>
  <g id="axes_1">
   <g id="patch_2">
    <path d="M 18.04752 104.629491
L 98.80128 104.629491
Q 101.01096 104.629491 101.01096 102.495051
L 101.01096 43.894971
Q 101.01096 41.760531 98.80128 41.760531
L 18.04752 41.760531
Q 15.83784 41.760531 15.83784 43.894971
L 15.83784 102.495051
Q 15.83784 104.629491 18.04752 104.629491
z
" clip-path="url(#pd7a424bcac)" style="fill: #fbead8; stroke: #d67a2c; stroke-width: 0.9; stroke-linejoin: miter"/>
   </g>
   <g id="patch_3">
    <path d="M 118.48752 104.629491
L 199.24128 104.629491
Q 201.45096 104.629491 201.45096 102.495051
L 201.45096 43.894971
Q 201.45096 41.760531 199.24128 41.760531
L 118.48752 41.760531
Q 116.27784 41.760531 116.27784 43.894971
L 116.27784 102.495051
Q 116.27784 104.629491 118.48752 104.629491
z
" clip-path="url(#pd7a424bcac)" style="fill: #f7f0df; stroke: #a56b25; stroke-width: 0.9; stroke-linejoin: miter"/>
   </g>
   <g id="patch_4">
    <path d="M 218.92752 104.629491
L 311.73408 104.629491
Q 313.94376 104.629491 313.94376 102.495051
L 313.94376 43.894971
Q 313.94376 41.760531 311.73408 41.760531
L 218.92752 41.760531
Q 216.71784 41.760531 216.71784 43.894971
L 216.71784 102.495051
Q 216.71784 104.629491 218.92752 104.629491
z
" clip-path="url(#pd7a424bcac)" style="fill: #eaf2fb; stroke: #0f4d92; stroke-width: 0.9; stroke-linejoin: miter"/>
   </g>
   <g id="patch_5">
    <path d="M 331.42032 104.629491
L 398.11248 104.629491
Q 400.32216 104.629491 400.32216 102.495051
L 400.32216 43.894971
Q 400.32216 41.760531 398.11248 41.760531
L 331.42032 41.760531
Q 329.21064 41.760531 329.21064 43.894971
L 329.21064 102.495051
Q 329.21064 104.629491 331.42032 104.629491
z
" clip-path="url(#pd7a424bcac)" style="fill: #eaf6ea; stroke: #4e9a51; stroke-width: 0.9; stroke-linejoin: miter"/>
   </g>
   <g id="patch_6">
    <path d="M 101.604282 73.389051
Q 108.645047 73.389051 114.567778 73.389051
" clip-path="url(#pd7a424bcac)" style="fill: none; stroke: #333333; stroke-linecap: round"/>
    <path d="M 110.567778 71.389051
L 114.567778 73.389051
L 110.567778 75.389051
z
" clip-path="url(#pd7a424bcac)" style="fill: #333333; stroke: #333333; stroke-linecap: round"/>
   </g>
   <g id="patch_7">
    <path d="M 202.044282 73.389051
Q 209.085047 73.389051 215.007778 73.389051
" clip-path="url(#pd7a424bcac)" style="fill: none; stroke: #333333; stroke-linecap: round"/>
    <path d="M 211.007778 71.389051
L 215.007778 73.389051
L 211.007778 75.389051
z
" clip-path="url(#pd7a424bcac)" style="fill: #333333; stroke: #333333; stroke-linecap: round"/>
   </g>
   <g id="patch_8">
    <path d="M 314.537082 73.389051
Q 321.577847 73.389051 327.500578 73.389051
" clip-path="url(#pd7a424bcac)" style="fill: none; stroke: #333333; stroke-linecap: round"/>
    <path d="M 323.500578 71.389051
L 327.500578 73.389051
L 323.500578 75.389051
z
" clip-path="url(#pd7a424bcac)" style="fill: #333333; stroke: #333333; stroke-linecap: round"/>
   </g>
   <g id="patch_9">
    <path d="M 18.04752 182.245491
L 106.83648 182.245491
Q 109.04616 182.245491 109.04616 180.111051
L 109.04616 137.034171
Q 109.04616 134.899731 106.83648 134.899731
L 18.04752 134.899731
Q 15.83784 134.899731 15.83784 137.034171
L 15.83784 180.111051
Q 15.83784 182.245491 18.04752 182.245491
z
" clip-path="url(#pd7a424bcac)" style="fill: #f0f6ec; stroke: #4e9a51; stroke-width: 0.9; stroke-linejoin: miter"/>
   </g>
   <g id="patch_10">
    <path d="M 109.017581 157.312088
Q 153.563802 110.666411 215.097588 95.472222
" clip-path="url(#pd7a424bcac)" style="fill: none; stroke-dasharray: 3.7,1.6; stroke-dashoffset: 0; stroke: #4e9a51; stroke-linecap: round"/>
    <path d="M 210.734776 94.489437
L 215.097588 95.472222
L 211.693673 98.372801
z
" clip-path="url(#pd7a424bcac)" style="fill: #4e9a51; stroke-dasharray: 3.7,1.6; stroke-dashoffset: 0; stroke: #4e9a51; stroke-linecap: round"/>
   </g>
   <g id="patch_11">
    <path d="M 218.92752 193.887891
L 311.73408 193.887891
Q 313.94376 193.887891 313.94376 191.753451
L 313.94376 144.795771
Q 313.94376 142.661331 311.73408 142.661331
L 218.92752 142.661331
Q 216.71784 142.661331 216.71784 144.795771
L 216.71784 191.753451
Q 216.71784 193.887891 218.92752 193.887891
z
" clip-path="url(#pd7a424bcac)" style="fill: #fce9e6; stroke: #b64342; stroke-width: 0.9; stroke-linejoin: miter"/>
   </g>
   <g id="patch_12">
    <path d="M 264.3264 105.275801
Q 264.3264 123.647423 264.3264 140.901011
" clip-path="url(#pd7a424bcac)" style="fill: none; stroke: #b64342; stroke-linecap: round"/>
    <path d="M 266.3264 136.901011
L 264.3264 140.901011
L 262.3264 136.901011
z
" clip-path="url(#pd7a424bcac)" style="fill: #b64342; stroke: #b64342; stroke-linecap: round"/>
   </g>
   <g id="patch_13">
    <path d="M 216.778558 167.375069
Q 153.787374 98.577065 61.73683 103.109781
" clip-path="url(#pd7a424bcac)" style="fill: none; stroke: #b64342; stroke-linecap: round"/>
    <path d="M 65.830353 104.910632
L 61.73683 103.109781
L 65.633625 100.915473
z
" clip-path="url(#pd7a424bcac)" style="fill: #b64342; stroke: #b64342; stroke-linecap: round"/>
   </g>
   <g id="patch_14">
    <path d="M 331.42032 190.007091
L 398.11248 190.007091
Q 400.32216 190.007091 400.32216 187.872651
L 400.32216 148.676571
Q 400.32216 146.542131 398.11248 146.542131
L 331.42032 146.542131
Q 329.21064 146.542131 329.21064 148.676571
L 329.21064 187.872651
Q 329.21064 190.007091 331.42032 190.007091
z
" clip-path="url(#pd7a424bcac)" style="fill: #f1ecf7; stroke: #7c6ccf; stroke-width: 0.9; stroke-linejoin: miter"/>
   </g>
   <g id="patch_15">
    <path d="M 364.7664 105.273314
Q 364.7664 125.586489 364.7664 144.78163
" clip-path="url(#pd7a424bcac)" style="fill: none; stroke: #333333; stroke-linecap: round"/>
    <path d="M 366.7664 140.78163
L 364.7664 144.78163
L 362.7664 140.78163
z
" clip-path="url(#pd7a424bcac)" style="fill: #333333; stroke: #333333; stroke-linecap: round"/>
   </g>
   <g id="text_1">
    <text style="font-weight: 700; font-size: 8.5px; font-family: 'Arial', 'Helvetica', 'DejaVu Sans', sans-serif; text-anchor: start" x="11.2176" y="13.388232" transform="rotate(-0 11.2176 13.388232)">a</text>
   </g>
   <g id="text_2">
    <text style="font-weight: 700; font-size: 9px; font-family: 'Arial', 'Helvetica', 'DejaVu Sans', sans-serif; text-anchor: start" x="20.05632" y="24.057777" transform="rotate(-0 20.05632 24.057777)">Closed-loop physics-verified admission</text>
   </g>
   <g id="text_3">
    <text style="font-weight: 700; font-size: 7.1px; font-family: 'Arial', 'Helvetica', 'DejaVu Sans', sans-serif; text-anchor: start; fill: #d67a2c" x="22.06512" y="56.825565" transform="rotate(-0 22.06512 56.825565)">1  LLM recipe</text>
   </g>
   <g id="text_4">
    <text style="font-size: 6.3px; font-family: 'Arial', 'Helvetica', 'DejaVu Sans', sans-serif; text-anchor: start; fill: #3a3a3a" x="22.06512" y="66.336791" transform="rotate(-0 22.06512 66.336791)">JSON recipe</text>
   </g>
   <g id="text_5">
    <text style="font-size: 6.3px; font-family: 'Arial', 'Helvetica', 'DejaVu Sans', sans-serif; text-anchor: start; fill: #3a3a3a" x="22.06512" y="75.259063" transform="rotate(-0 22.06512 75.259063)">fault class + condition</text>
   </g>
   <g id="text_6">
    <text style="font-size: 6.3px; font-family: 'Arial', 'Helvetica', 'DejaVu Sans', sans-serif; text-anchor: start; fill: #3a3a3a" x="22.06512" y="84.184903" transform="rotate(-0 22.06512 84.184903)">feedback-aware resampling</text>
   </g>
   <g id="text_7">
    <text style="font-weight: 700; font-size: 7.1px; font-family: 'Arial', 'Helvetica', 'DejaVu Sans', sans-serif; text-anchor: start; fill: #a56b25" x="122.50512" y="56.825565" transform="rotate(-0 122.50512 56.825565)">2  Renderer</text>
   </g>
   <g id="text_8">
    <text style="font-size: 6.3px; font-family: 'Arial', 'Helvetica', 'DejaVu Sans', sans-serif; text-anchor: start; fill: #3a3a3a" x="122.50512" y="66.333223" transform="rotate(-0 122.50512 66.333223)">fixed equations</text>
   </g>
   <g id="text_9">
    <text style="font-size: 6.3px; font-family: 'Arial', 'Helvetica', 'DejaVu Sans', sans-serif; text-anchor: start; fill: #3a3a3a" x="122.50512" y="75.259063" transform="rotate(-0 122.50512 75.259063)">vibration + currents</text>
   </g>
   <g id="text_10">
    <text style="font-size: 6.3px; font-family: 'Arial', 'Helvetica', 'DejaVu Sans', sans-serif; text-anchor: start; fill: #3a3a3a" x="122.50512" y="84.184903" transform="rotate(-0 122.50512 84.184903)">seeded waveform</text>
   </g>
   <g id="text_11">
    <text style="font-weight: 700; font-size: 7.1px; font-family: 'Arial', 'Helvetica', 'DejaVu Sans', sans-serif; text-anchor: start; fill: #0f4d92" x="222.94512" y="56.825565" transform="rotate(-0 222.94512 56.825565)">3  Verifier</text>
   </g>
   <g id="text_12">
    <text style="font-size: 6.3px; font-family: 'Arial', 'Helvetica', 'DejaVu Sans', sans-serif; text-anchor: start; fill: #3a3a3a" x="222.94512" y="66.333223" transform="rotate(-0 222.94512 66.333223)">format and legality</text>
   </g>
   <g id="text_13">
    <text style="font-size: 6.3px; font-family: 'Arial', 'Helvetica', 'DejaVu Sans', sans-serif; text-anchor: start; fill: #3a3a3a" x="222.94512" y="75.259063" transform="rotate(-0 222.94512 75.259063)">statistics + PSD shape</text>
   </g>
   <g id="text_14">
    <text style="font-size: 6.3px; font-family: 'Arial', 'Helvetica', 'DejaVu Sans', sans-serif; text-anchor: start; fill: #3a3a3a" x="222.94512" y="84.184903" transform="rotate(-0 222.94512 84.184903)">envelope; supported MCSA</text>
   </g>
   <g id="text_15">
    <text style="font-weight: 700; font-size: 7.1px; font-family: 'Arial', 'Helvetica', 'DejaVu Sans', sans-serif; text-anchor: start; fill: #4e9a51" x="335.43792" y="56.825565" transform="rotate(-0 335.43792 56.825565)">4  Admitted pool</text>
   </g>
   <g id="text_16">
    <text style="font-size: 6.3px; font-family: 'Arial', 'Helvetica', 'DejaVu Sans', sans-serif; text-anchor: start; fill: #3a3a3a" x="335.43792" y="66.333223" transform="rotate(-0 335.43792 66.333223)">recipe + seed</text>
   </g>
   <g id="text_17">
    <text style="font-size: 6.3px; font-family: 'Arial', 'Helvetica', 'DejaVu Sans', sans-serif; text-anchor: start; fill: #3a3a3a" x="335.43792" y="75.259063" transform="rotate(-0 335.43792 75.259063)">gate report</text>
   </g>
   <g id="text_18">
    <text style="font-size: 6.3px; font-family: 'Arial', 'Helvetica', 'DejaVu Sans', sans-serif; text-anchor: start; fill: #3a3a3a" x="335.43792" y="84.184903" transform="rotate(-0 335.43792 84.184903)">diversity-admitted window</text>
   </g>
   <g id="text_19">
    <text style="font-weight: 700; font-size: 7.1px; font-family: 'Arial', 'Helvetica', 'DejaVu Sans', sans-serif; text-anchor: start; fill: #4e9a51" x="22.06512" y="149.964765" transform="rotate(-0 22.06512 149.964765)">Real train split</text>
   </g>
   <g id="text_20">
    <text style="font-size: 6.3px; font-family: 'Arial', 'Helvetica', 'DejaVu Sans', sans-serif; text-anchor: start; fill: #3a3a3a" x="22.06512" y="159.472423" transform="rotate(-0 22.06512 159.472423)">file-level split</text>
   </g>
   <g id="text_21">
    <text style="font-size: 6.3px; font-family: 'Arial', 'Helvetica', 'DejaVu Sans', sans-serif; text-anchor: start; fill: #3a3a3a" x="22.06512" y="168.398263" transform="rotate(-0 22.06512 168.398263)">quantiles from train only</text>
   </g>
   <g id="text_22">
    <text style="font-size: 6.3px; font-family: 'Arial', 'Helvetica', 'DejaVu Sans', sans-serif; text-anchor: start; fill: #3a3a3a" x="22.06512" y="177.324103" transform="rotate(-0 22.06512 177.324103)">no test leakage</text>
   </g>
   <g id="text_23">
    <text style="font-size: 6.2px; font-family: 'Arial', 'Helvetica', 'DejaVu Sans', sans-serif; fill: #4e9a51" transform="translate(141.941812 143.367668) rotate(-18)">thresholds</text>
   </g>
   <g id="text_24">
    <text style="font-weight: 700; font-size: 7.1px; font-family: 'Arial', 'Helvetica', 'DejaVu Sans', sans-serif; text-anchor: start; fill: #b64342" x="222.94512" y="157.726365" transform="rotate(-0 222.94512 157.726365)">Structured rejection</text>
   </g>
   <g id="text_25">
    <text style="font-size: 6.3px; font-family: 'Arial', 'Helvetica', 'DejaVu Sans', sans-serif; text-anchor: start; fill: #3a3a3a" x="222.94512" y="167.234023" transform="rotate(-0 222.94512 167.234023)">failed gate</text>
   </g>
   <g id="text_26">
    <text style="font-size: 6.3px; font-family: 'Arial', 'Helvetica', 'DejaVu Sans', sans-serif; text-anchor: start; fill: #3a3a3a" x="222.94512" y="176.159863" transform="rotate(-0 222.94512 176.159863)">measured value vs bound</text>
   </g>
   <g id="text_27">
    <text style="font-size: 6.3px; font-family: 'Arial', 'Helvetica', 'DejaVu Sans', sans-serif; text-anchor: start; fill: #3a3a3a" x="222.94512" y="185.085703" transform="rotate(-0 222.94512 185.085703)">next prompt constraint</text>
   </g>
   <g id="text_28">
    <text style="font-size: 6.2px; font-family: 'Arial', 'Helvetica', 'DejaVu Sans', sans-serif; fill: #b64342" transform="translate(104.198366 139.426512) rotate(-18)">feedback &lt;= K rounds</text>
   </g>
   <g id="text_29">
    <text style="font-weight: 700; font-size: 7.1px; font-family: 'Arial', 'Helvetica', 'DejaVu Sans', sans-serif; text-anchor: start; fill: #7c6ccf" x="335.43792" y="161.607165" transform="rotate(-0 335.43792 161.607165)">Diagnosis</text>
   </g>
   <g id="text_30">
    <text style="font-size: 6.3px; font-family: 'Arial', 'Helvetica', 'DejaVu Sans', sans-serif; text-anchor: start; fill: #3a3a3a" x="335.43792" y="171.114823" transform="rotate(-0 335.43792 171.114823)">real + admitted</text>
   </g>
   <g id="text_31">
    <text style="font-size: 6.3px; font-family: 'Arial', 'Helvetica', 'DejaVu Sans', sans-serif; text-anchor: start; fill: #3a3a3a" x="335.43792" y="180.040663" transform="rotate(-0 335.43792 180.040663)">compact 1-D CNN</text>
   </g>
   <g id="text_32">
    <text style="font-size: 6.3px; font-family: 'Arial', 'Helvetica', 'DejaVu Sans', sans-serif; text-anchor: start; fill: #3a3a3a" x="335.43792" y="188.966503" transform="rotate(-0 335.43792 188.966503)">paired tests</text>
   </g>
   <g id="text_33">
    <text style="font-size: 6.6px; font-family: 'Arial', 'Helvetica', 'DejaVu Sans', sans-serif; text-anchor: start; fill: #3a3a3a" x="19.2528" y="224.740251" transform="rotate(-0 19.2528 224.740251)">No target-data generator optimization and no waveform repair: rejected candidates remain rejected.</text>
   </g>
  </g>
 </g>
 <defs>
  <clipPath id="pd7a424bcac">
   <rect x="7.2" y="8.191611" width="401.76" height="232.848"/>
  </clipPath>
 </defs>
</svg>
